<svg xmlns="http://www.w3.org/2000/svg" viewBox="0 0 1920 1080" preserveAspectRatio="xMidYMid slice" role="img" aria-label="Farm landscape at sunrise">
  <defs>
    <!-- Sky: deep night-blue at top transitioning to warm golden sunrise -->
    <linearGradient id="skyGrad" x1="0" y1="0" x2="0" y2="1">
      <stop offset="0%"   stop-color="#1b2a4a"/>
      <stop offset="28%"  stop-color="#2e5480"/>
      <stop offset="52%"  stop-color="#c96d30"/>
      <stop offset="70%"  stop-color="#f5b84a"/>
      <stop offset="88%"  stop-color="#fde490"/>
      <stop offset="100%" stop-color="#fff3c2"/>
    </linearGradient>
    <!-- Sun radial glow -->
    <radialGradient id="sunGlow" cx="50%" cy="100%" r="60%" fx="50%" fy="100%">
      <stop offset="0%"   stop-color="#fff9a0" stop-opacity="0.95"/>
      <stop offset="15%"  stop-color="#ffe55c" stop-opacity="0.75"/>
      <stop offset="40%"  stop-color="#ffaa33" stop-opacity="0.4"/>
      <stop offset="70%"  stop-color="#ff7722" stop-opacity="0.12"/>
      <stop offset="100%" stop-color="#ff5500" stop-opacity="0"/>
    </radialGradient>
    <!-- Far hill gradient -->
    <linearGradient id="farHillGrad" x1="0" y1="0" x2="0" y2="1">
      <stop offset="0%"   stop-color="#4a7a5a" stop-opacity="0.65"/>
      <stop offset="100%" stop-color="#3d6b4c" stop-opacity="0.85"/>
    </linearGradient>
    <!-- Mid hill gradient -->
    <linearGradient id="midHillGrad" x1="0" y1="0" x2="0" y2="1">
      <stop offset="0%"   stop-color="#5a9460"/>
      <stop offset="100%" stop-color="#3f7045"/>
    </linearGradient>
    <!-- Foreground ground -->
    <linearGradient id="groundGrad" x1="0" y1="0" x2="0" y2="1">
      <stop offset="0%"   stop-color="#7daa3a"/>
      <stop offset="55%"  stop-color="#5a8228"/>
      <stop offset="100%" stop-color="#3c5a18"/>
    </linearGradient>
    <!-- Wheat field -->
    <linearGradient id="wheatField" x1="0" y1="0" x2="0" y2="1">
      <stop offset="0%"   stop-color="#d4a020"/>
      <stop offset="60%"  stop-color="#b88015"/>
      <stop offset="100%" stop-color="#8a6010"/>
    </linearGradient>
    <!-- Barn body -->
    <linearGradient id="barnGrad" x1="0" y1="0" x2="0" y2="1">
      <stop offset="0%"   stop-color="#9b2e2e"/>
      <stop offset="100%" stop-color="#6e1e1e"/>
    </linearGradient>
    <!-- Silo gradient -->
    <linearGradient id="siloGrad" x1="0" y1="0" x2="1" y2="0">
      <stop offset="0%"   stop-color="#b09a5a"/>
      <stop offset="60%"  stop-color="#d4bc78"/>
      <stop offset="100%" stop-color="#a08848"/>
    </linearGradient>
    <!-- Water/pond -->
    <linearGradient id="pondGrad" x1="0" y1="0" x2="0" y2="1">
      <stop offset="0%"   stop-color="#5aa0cc" stop-opacity="0.85"/>
      <stop offset="100%" stop-color="#2a6a90" stop-opacity="0.95"/>
    </linearGradient>
    <!-- Bottom overlay so text on top stays readable -->
    <linearGradient id="bottomFade" x1="0" y1="0" x2="0" y2="1">
      <stop offset="0%"   stop-color="transparent"/>
      <stop offset="70%"  stop-color="rgba(15,30,10,0.25)"/>
      <stop offset="100%" stop-color="rgba(15,30,10,0.55)"/>
    </linearGradient>
    <!-- Left shadow vignette -->
    <linearGradient id="leftVignette" x1="0" y1="0" x2="1" y2="0">
      <stop offset="0%"   stop-color="rgba(10,20,10,0.45)"/>
      <stop offset="30%"  stop-color="transparent"/>
    </linearGradient>
    <!-- Right shadow vignette -->
    <linearGradient id="rightVignette" x1="0" y1="0" x2="1" y2="0">
      <stop offset="70%"  stop-color="transparent"/>
      <stop offset="100%" stop-color="rgba(10,20,10,0.35)"/>
    </linearGradient>
    <!-- Wheat stalk filter for texture -->
    <filter id="blur1" x="-5%" y="-5%" width="110%" height="110%">
      <feGaussianBlur stdDeviation="1.2"/>
    </filter>
    <!-- Tree foliage filter -->
    <filter id="treeBlur" x="-10%" y="-10%" width="120%" height="120%">
      <feGaussianBlur stdDeviation="2"/>
    </filter>
  </defs>

  <!-- ═══════════ SKY ═══════════ -->
  <rect width="1920" height="1080" fill="url(#skyGrad)"/>

  <!-- Sun glow bloom -->
  <ellipse cx="960" cy="590" rx="480" ry="220" fill="url(#sunGlow)"/>

  <!-- Sun disc -->
  <circle cx="960" cy="590" r="72" fill="#fffbd0" opacity="0.98"/>
  <circle cx="960" cy="590" r="60" fill="#ffe870" opacity="0.97"/>
  <circle cx="960" cy="590" r="46" fill="#ffcc22" opacity="1"/>
  <!-- Sun inner glow -->
  <circle cx="956" cy="586" r="30" fill="#fff5a0" opacity="0.6"/>

  <!-- Subtle sun rays -->
  <g opacity="0.07" stroke="#ffe060" stroke-width="50" stroke-linecap="round">
    <line x1="960" y1="590" x2="200"  y2="50"/>
    <line x1="960" y1="590" x2="650"  y2="20"/>
    <line x1="960" y1="590" x2="1270" y2="20"/>
    <line x1="960" y1="590" x2="1720" y2="50"/>
    <line x1="960" y1="590" x2="960"  y2="0"/>
  </g>

  <!-- ═══════════ CLOUDS ═══════════ -->
  <!-- Large cloud left -->
  <g opacity="0.88">
    <ellipse cx="215"  cy="210" rx="100" ry="42" fill="#fff8e8"/>
    <ellipse cx="260"  cy="188" rx="72"  ry="36" fill="white"/>
    <ellipse cx="165"  cy="200" rx="62"  ry="30" fill="#fff5e0"/>
    <ellipse cx="215"  cy="205" rx="108" ry="34" fill="white"/>
  </g>
  <!-- Cloud far-left small -->
  <g opacity="0.65">
    <ellipse cx="55"   cy="290" rx="58"  ry="24" fill="white"/>
    <ellipse cx="80"   cy="278" rx="42"  ry="20" fill="white"/>
    <ellipse cx="35"   cy="282" rx="36"  ry="18" fill="white"/>
  </g>
  <!-- Cloud right of sun -->
  <g opacity="0.82">
    <ellipse cx="1300" cy="165" rx="120" ry="48" fill="white"/>
    <ellipse cx="1360" cy="142" rx="88"  ry="40" fill="#fffdf0"/>
    <ellipse cx="1240" cy="155" rx="72"  ry="35" fill="white"/>
    <ellipse cx="1300" cy="158" rx="128" ry="38" fill="white"/>
  </g>
  <!-- Cloud far right -->
  <g opacity="0.72">
    <ellipse cx="1740" cy="230" rx="90"  ry="38" fill="#fff8e8"/>
    <ellipse cx="1790" cy="212" rx="66"  ry="32" fill="white"/>
    <ellipse cx="1692" cy="222" rx="58"  ry="28" fill="white"/>
    <ellipse cx="1740" cy="224" rx="96"  ry="30" fill="white"/>
  </g>
  <!-- Small cloud near horizon -->
  <g opacity="0.5">
    <ellipse cx="600"  cy="380" rx="70"  ry="22" fill="#ffecc0"/>
    <ellipse cx="640"  cy="368" rx="50"  ry="18" fill="#ffe8b0"/>
    <ellipse cx="562"  cy="374" rx="44"  ry="16" fill="#ffecc0"/>
  </g>
  <g opacity="0.45">
    <ellipse cx="1500" cy="360" rx="80"  ry="25" fill="#ffecc0"/>
    <ellipse cx="1548" cy="346" rx="58"  ry="20" fill="#ffe8b0"/>
    <ellipse cx="1455" cy="352" rx="50"  ry="18" fill="#ffecc0"/>
  </g>

  <!-- ═══════════ FLYING BIRDS (V-shapes) ═══════════ -->
  <g stroke="#2a3a58" stroke-width="2.5" fill="none" opacity="0.6">
    <path d="M820,285 Q828,278 836,285"/>
    <path d="M841,280 Q849,273 857,280"/>
    <path d="M862,289 Q870,282 878,289"/>
  </g>
  <g stroke="#2a3a58" stroke-width="2" fill="none" opacity="0.45">
    <path d="M1080,320 Q1086,314 1092,320"/>
    <path d="M1096,316 Q1102,310 1108,316"/>
    <path d="M1112,323 Q1118,317 1124,323"/>
    <path d="M1128,318 Q1134,312 1140,318"/>
  </g>

  <!-- ═══════════ FAR HILLS ═══════════ -->
  <path d="M0,660 Q120,560 280,590 Q440,560 600,595 Q720,560 880,580
           Q1020,545 1180,575 Q1340,548 1500,570
           Q1680,542 1800,565 Q1880,558 1920,570
           L1920,760 L0,760 Z"
        fill="url(#farHillGrad)"/>

  <!-- ═══════════ MID HILLS ═══════════ -->
  <path d="M0,720 Q90,660 240,690 Q420,642 600,678
           Q780,645 940,672 Q1100,648 1280,668
           Q1440,648 1620,672 Q1780,654 1920,668
           L1920,840 L0,840 Z"
        fill="url(#midHillGrad)"/>

  <!-- ═══════════ SMALL POND / WATER REFLECTION ═══════════ -->
  <ellipse cx="1520" cy="825" rx="110" ry="28" fill="url(#pondGrad)" opacity="0.8"/>
  <!-- Pond shimmer lines -->
  <g stroke="white" stroke-width="1.2" opacity="0.35">
    <line x1="1445" y1="820" x2="1480" y2="820"/>
    <line x1="1510" y1="815" x2="1555" y2="815"/>
    <line x1="1580" y1="822" x2="1615" y2="822"/>
  </g>

  <!-- ═══════════ BARN COMPLEX ═══════════ -->
  <!-- Barn body -->
  <rect x="290" y="640" width="180" height="145" fill="url(#barnGrad)"/>
  <!-- Barn gambrel roof -->
  <polygon points="268,640 380,548 492,640" fill="#7a1c1c"/>
  <!-- Barn roof highlight -->
  <polygon points="268,640 380,548 395,560 278,645" fill="#8a2222" opacity="0.5"/>
  <!-- Barn loft door (upper) -->
  <rect x="352" y="583" width="56" height="42" fill="#2a0808" rx="2"/>
  <rect x="352" y="583" width="56" height="4" fill="#5a1818"/>
  <!-- Barn main door (lower) -->
  <rect x="348" y="700" width="62" height="85" fill="#2a0808" rx="2"/>
  <!-- Door highlight -->
  <rect x="348" y="700" width="31" height="85" fill="#320a0a" rx="2"/>
  <!-- Barn windows -->
  <rect x="298" y="666" width="32" height="26" fill="#ffcc44" opacity="0.75" rx="2"/>
  <rect x="443" y="666" width="32" height="26" fill="#ffcc44" opacity="0.75" rx="2"/>
  <!-- Window glow -->
  <rect x="298" y="666" width="32" height="26" fill="#ffffff" opacity="0.15" rx="2"/>
  <!-- Barn wood plank lines -->
  <g stroke="#5a1a1a" stroke-width="1.5" opacity="0.3">
    <line x1="290" y1="670" x2="470" y2="670"/>
    <line x1="290" y1="695" x2="470" y2="695"/>
    <line x1="290" y1="720" x2="470" y2="720"/>
    <line x1="290" y1="745" x2="470" y2="745"/>
    <line x1="290" y1="770" x2="470" y2="770"/>
  </g>

  <!-- Silo 1 (tall) -->
  <rect x="490" y="592" width="58" height="193" fill="url(#siloGrad)" rx="2"/>
  <ellipse cx="519" cy="592" rx="29" ry="14" fill="#a08840"/>
  <ellipse cx="519" cy="592" rx="29" ry="14" fill="url(#siloGrad)" opacity="0.5"/>
  <!-- Silo roof dome -->
  <path d="M490,592 Q519,560 548,592 Z" fill="#8a7230"/>
  <!-- Silo bands -->
  <g stroke="#8a7230" stroke-width="2.5" fill="none" opacity="0.6">
    <ellipse cx="519" cy="620" rx="29" ry="6"/>
    <ellipse cx="519" cy="648" rx="29" ry="6"/>
    <ellipse cx="519" cy="676" rx="29" ry="6"/>
    <ellipse cx="519" cy="704" rx="29" ry="6"/>
    <ellipse cx="519" cy="732" rx="29" ry="6"/>
    <ellipse cx="519" cy="760" rx="29" ry="6"/>
  </g>

  <!-- Silo 2 (shorter) -->
  <rect x="555" y="640" width="45" height="145" fill="#c0aa68" rx="1"/>
  <ellipse cx="577" cy="640" rx="22" ry="10" fill="#a09050"/>
  <path d="M555,640 Q577,616 599,640 Z" fill="#7a6828"/>

  <!-- Small farm structure / shed -->
  <rect x="660" y="720" width="100" height="65" fill="#8a6030"/>
  <polygon points="652,720 710,680 768,720" fill="#5a4020"/>

  <!-- ═══════════ WHEAT FIELD ═══════════ -->
  <!-- Wheat field ground base -->
  <path d="M0,840 Q480,800 960,818 Q1440,800 1920,818 L1920,1080 L0,1080 Z"
        fill="url(#groundGrad)"/>

  <!-- Wheat field band -->
  <path d="M0,835 Q480,810 960,825 Q1440,808 1920,822 L1920,900 L0,900 Z"
        fill="url(#wheatField)" opacity="0.88"/>

  <!-- Individual wheat stalks (foreground layer) -->
  <!-- Left section wheat stalks -->
  <g stroke="#c89a18" stroke-width="2.8" opacity="0.85">
    <!-- Each stalk: vertical line + small grain head -->
    <line x1="48"   y1="920" x2="50"   y2="848"/>
    <line x1="80"   y1="924" x2="82"   y2="850"/>
    <line x1="112"  y1="918" x2="114"  y2="846"/>
    <line x1="144"  y1="922" x2="145"  y2="848"/>
    <line x1="176"  y1="916" x2="177"  y2="844"/>
    <line x1="208"  y1="920" x2="209"  y2="848"/>
    <line x1="240"  y1="924" x2="241"  y2="850"/>
    <line x1="272"  y1="918" x2="273"  y2="846"/>
    <line x1="304"  y1="922" x2="305"  y2="848"/>
    <line x1="336"  y1="916" x2="337"  y2="844"/>
    <line x1="368"  y1="920" x2="369"  y2="848"/>
    <line x1="400"  y1="924" x2="401"  y2="850"/>
    <line x1="432"  y1="918" x2="433"  y2="846"/>
    <line x1="464"  y1="922" x2="465"  y2="848"/>
    <line x1="496"  y1="916" x2="497"  y2="844"/>
    <line x1="528"  y1="920" x2="529"  y2="848"/>
    <line x1="560"  y1="924" x2="561"  y2="850"/>
    <line x1="592"  y1="918" x2="593"  y2="846"/>
    <line x1="624"  y1="922" x2="625"  y2="848"/>
    <line x1="656"  y1="916" x2="657"  y2="844"/>
    <line x1="688"  y1="920" x2="689"  y2="848"/>
    <line x1="720"  y1="924" x2="721"  y2="850"/>
    <line x1="752"  y1="918" x2="753"  y2="846"/>
    <line x1="784"  y1="922" x2="785"  y2="848"/>
    <line x1="816"  y1="916" x2="817"  y2="844"/>
    <line x1="848"  y1="920" x2="849"  y2="848"/>
    <line x1="880"  y1="924" x2="881"  y2="850"/>
    <line x1="912"  y1="918" x2="913"  y2="846"/>
    <line x1="944"  y1="922" x2="945"  y2="848"/>
    <line x1="976"  y1="916" x2="977"  y2="844"/>
    <line x1="1008" y1="920" x2="1009" y2="848"/>
    <line x1="1040" y1="924" x2="1041" y2="850"/>
    <line x1="1072" y1="918" x2="1073" y2="846"/>
    <line x1="1104" y1="922" x2="1105" y2="848"/>
    <line x1="1136" y1="916" x2="1137" y2="844"/>
    <line x1="1168" y1="920" x2="1169" y2="848"/>
    <line x1="1200" y1="924" x2="1201" y2="850"/>
    <line x1="1232" y1="918" x2="1233" y2="846"/>
    <line x1="1264" y1="922" x2="1265" y2="848"/>
    <line x1="1296" y1="916" x2="1297" y2="844"/>
    <line x1="1328" y1="920" x2="1329" y2="848"/>
    <line x1="1360" y1="924" x2="1361" y2="850"/>
    <line x1="1392" y1="918" x2="1393" y2="846"/>
    <line x1="1424" y1="922" x2="1425" y2="848"/>
    <line x1="1456" y1="916" x2="1457" y2="844"/>
    <line x1="1488" y1="920" x2="1489" y2="848"/>
    <line x1="1520" y1="924" x2="1521" y2="850"/>
    <line x1="1552" y1="918" x2="1553" y2="846"/>
    <line x1="1584" y1="922" x2="1585" y2="848"/>
    <line x1="1616" y1="916" x2="1617" y2="844"/>
    <line x1="1648" y1="920" x2="1649" y2="848"/>
    <line x1="1680" y1="924" x2="1681" y2="850"/>
    <line x1="1712" y1="918" x2="1713" y2="846"/>
    <line x1="1744" y1="922" x2="1745" y2="848"/>
    <line x1="1776" y1="916" x2="1777" y2="844"/>
    <line x1="1808" y1="920" x2="1809" y2="848"/>
    <line x1="1840" y1="924" x2="1841" y2="850"/>
    <line x1="1872" y1="918" x2="1873" y2="846"/>
    <line x1="1904" y1="922" x2="1905" y2="848"/>
  </g>
  <!-- Wheat grain heads (small ovals at top of each stalk) -->
  <g fill="#d4a820" opacity="0.9">
    <ellipse cx="50"   cy="845" rx="5" ry="11"/>
    <ellipse cx="82"   cy="847" rx="5" ry="11"/>
    <ellipse cx="114"  cy="843" rx="5" ry="11"/>
    <ellipse cx="145"  cy="845" rx="5" ry="11"/>
    <ellipse cx="177"  cy="841" rx="5" ry="11"/>
    <ellipse cx="209"  cy="845" rx="5" ry="11"/>
    <ellipse cx="241"  cy="847" rx="5" ry="11"/>
    <ellipse cx="273"  cy="843" rx="5" ry="11"/>
    <ellipse cx="305"  cy="845" rx="5" ry="11"/>
    <ellipse cx="337"  cy="841" rx="5" ry="11"/>
    <ellipse cx="369"  cy="845" rx="5" ry="11"/>
    <ellipse cx="401"  cy="847" rx="5" ry="11"/>
    <ellipse cx="433"  cy="843" rx="5" ry="11"/>
    <ellipse cx="465"  cy="845" rx="5" ry="11"/>
    <ellipse cx="497"  cy="841" rx="5" ry="11"/>
    <ellipse cx="529"  cy="845" rx="5" ry="11"/>
    <ellipse cx="561"  cy="847" rx="5" ry="11"/>
    <ellipse cx="593"  cy="843" rx="5" ry="11"/>
    <ellipse cx="625"  cy="845" rx="5" ry="11"/>
    <ellipse cx="657"  cy="841" rx="5" ry="11"/>
    <ellipse cx="689"  cy="845" rx="5" ry="11"/>
    <ellipse cx="721"  cy="847" rx="5" ry="11"/>
    <ellipse cx="753"  cy="843" rx="5" ry="11"/>
    <ellipse cx="785"  cy="845" rx="5" ry="11"/>
    <ellipse cx="817"  cy="841" rx="5" ry="11"/>
    <ellipse cx="849"  cy="845" rx="5" ry="11"/>
    <ellipse cx="881"  cy="847" rx="5" ry="11"/>
    <ellipse cx="913"  cy="843" rx="5" ry="11"/>
    <ellipse cx="945"  cy="845" rx="5" ry="11"/>
    <ellipse cx="977"  cy="841" rx="5" ry="11"/>
    <ellipse cx="1009" cy="845" rx="5" ry="11"/>
    <ellipse cx="1041" cy="847" rx="5" ry="11"/>
    <ellipse cx="1073" cy="843" rx="5" ry="11"/>
    <ellipse cx="1105" cy="845" rx="5" ry="11"/>
    <ellipse cx="1137" cy="841" rx="5" ry="11"/>
    <ellipse cx="1169" cy="845" rx="5" ry="11"/>
    <ellipse cx="1201" cy="847" rx="5" ry="11"/>
    <ellipse cx="1233" cy="843" rx="5" ry="11"/>
    <ellipse cx="1265" cy="845" rx="5" ry="11"/>
    <ellipse cx="1297" cy="841" rx="5" ry="11"/>
    <ellipse cx="1329" cy="845" rx="5" ry="11"/>
    <ellipse cx="1361" cy="847" rx="5" ry="11"/>
    <ellipse cx="1393" cy="843" rx="5" ry="11"/>
    <ellipse cx="1425" cy="845" rx="5" ry="11"/>
    <ellipse cx="1457" cy="841" rx="5" ry="11"/>
    <ellipse cx="1489" cy="845" rx="5" ry="11"/>
    <ellipse cx="1521" cy="847" rx="5" ry="11"/>
    <ellipse cx="1553" cy="843" rx="5" ry="11"/>
    <ellipse cx="1585" cy="845" rx="5" ry="11"/>
    <ellipse cx="1617" cy="841" rx="5" ry="11"/>
    <ellipse cx="1649" cy="845" rx="5" ry="11"/>
    <ellipse cx="1681" cy="847" rx="5" ry="11"/>
    <ellipse cx="1713" cy="843" rx="5" ry="11"/>
    <ellipse cx="1745" cy="845" rx="5" ry="11"/>
    <ellipse cx="1777" cy="841" rx="5" ry="11"/>
    <ellipse cx="1809" cy="845" rx="5" ry="11"/>
    <ellipse cx="1841" cy="847" rx="5" ry="11"/>
    <ellipse cx="1873" cy="843" rx="5" ry="11"/>
    <ellipse cx="1905" cy="845" rx="5" ry="11"/>
  </g>

  <!-- ═══════════ FENCE ═══════════ -->
  <!-- Fence posts -->
  <g fill="#9a7848">
    <rect x="620"  y="800" width="10" height="65" rx="2"/>
    <rect x="720"  y="798" width="10" height="65" rx="2"/>
    <rect x="820"  y="800" width="10" height="65" rx="2"/>
    <rect x="920"  y="798" width="10" height="65" rx="2"/>
    <rect x="1020" y="800" width="10" height="65" rx="2"/>
    <rect x="1120" y="798" width="10" height="65" rx="2"/>
    <rect x="1220" y="800" width="10" height="65" rx="2"/>
    <rect x="1320" y="798" width="10" height="65" rx="2"/>
  </g>
  <!-- Fence rails -->
  <path d="M620,818 Q970,810 1325,818" stroke="#b09060" stroke-width="5" fill="none" stroke-linecap="round"/>
  <path d="M620,840 Q970,832 1325,840" stroke="#b09060" stroke-width="4" fill="none" stroke-linecap="round"/>

  <!-- ═══════════ TREES (left cluster) ═══════════ -->
  <rect x="104"  y="735" width="16" height="80" fill="#7a5828" rx="3"/>
  <circle cx="112" cy="720" r="50" fill="#3a6e28" filter="url(#treeBlur)"/>
  <circle cx="90"  cy="735" r="38" fill="#2e6020"/>
  <circle cx="135" cy="730" r="36" fill="#3a6e28"/>
  <circle cx="112" cy="710" r="42" fill="#4a8030"/>

  <rect x="168"  y="750" width="14" height="72" fill="#7a5828" rx="3"/>
  <circle cx="175" cy="736" r="42" fill="#3a6e28" filter="url(#treeBlur)"/>
  <circle cx="155" cy="748" r="34" fill="#2e6020"/>
  <circle cx="195" cy="744" r="32" fill="#4a7a28"/>

  <!-- Trees (right cluster) -->
  <rect x="1736" y="730" width="16" height="82" fill="#7a5828" rx="3"/>
  <circle cx="1744" cy="716" r="52" fill="#3a6e28" filter="url(#treeBlur)"/>
  <circle cx="1720" cy="730" r="40" fill="#2e6020"/>
  <circle cx="1768" cy="725" r="38" fill="#4a8030"/>
  <circle cx="1744" cy="705" r="44" fill="#3a6e28"/>

  <rect x="1800" y="745" width="14" height="70" fill="#7a5828" rx="3"/>
  <circle cx="1807" cy="730" r="44" fill="#3a6e28" filter="url(#treeBlur)"/>
  <circle cx="1785" cy="745" r="36" fill="#2e6020"/>
  <circle cx="1828" cy="740" r="34" fill="#4a7a28"/>

  <!-- ═══════════ TRACTOR SILHOUETTE ═══════════ -->
  <!-- Tractor body -->
  <rect x="1380" y="784" width="96"  height="44" fill="#3a6020" rx="4"/>
  <!-- Tractor cab -->
  <rect x="1425" y="762" width="52"  height="30" fill="#2e5018" rx="3"/>
  <!-- Cab window -->
  <rect x="1432" y="766" width="38"  height="20" fill="#5ab8e0" opacity="0.7" rx="2"/>
  <!-- Tractor exhaust pipe -->
  <rect x="1435" y="745" width="8"   height="18" fill="#1e3a10" rx="2"/>
  <!-- Tractor hood -->
  <rect x="1380" y="774" width="52"  height="18" fill="#4a7a28" rx="2"/>
  <!-- Tractor large rear wheel -->
  <circle cx="1404" cy="836" r="30"  fill="#1a2a10"/>
  <circle cx="1404" cy="836" r="22"  fill="#2a3a18"/>
  <circle cx="1404" cy="836" r="10"  fill="#1a2a10"/>
  <!-- Tractor small front wheel -->
  <circle cx="1460" cy="836" r="20"  fill="#1a2a10"/>
  <circle cx="1460" cy="836" r="14"  fill="#2a3a18"/>
  <circle cx="1460" cy="836" r="7"   fill="#1a2a10"/>

  <!-- ═══════════ HAYBALES ═══════════ -->
  <!-- Round bale 1 -->
  <ellipse cx="1190" cy="870" rx="38" ry="26" fill="#d4aa40"/>
  <ellipse cx="1190" cy="860" rx="38" ry="22" fill="#e0bc50"/>
  <g stroke="#b8920a" stroke-width="1.5" fill="none" opacity="0.6">
    <ellipse cx="1190" cy="860" rx="28" ry="14"/>
    <ellipse cx="1190" cy="860" rx="18" ry="10"/>
  </g>
  <!-- Round bale 2 -->
  <ellipse cx="1260" cy="875" rx="34" ry="23" fill="#d4aa40"/>
  <ellipse cx="1260" cy="866" rx="34" ry="20" fill="#e0bc50"/>
  <g stroke="#b8920a" stroke-width="1.5" fill="none" opacity="0.6">
    <ellipse cx="1260" cy="866" rx="25" ry="12"/>
    <ellipse cx="1260" cy="866" rx="14" ry="8"/>
  </g>

  <!-- ═══════════ OVERLAYS for depth / text readability ═══════════ -->
  <rect width="1920" height="1080" fill="url(#bottomFade)"/>
  <rect width="1920" height="1080" fill="url(#leftVignette)"/>
  <rect width="1920" height="1080" fill="url(#rightVignette)"/>
</svg>
